<?xml version="1.0" encoding="utf-8"?>
<!-- Generator: Adobe Illustrator 21.1.0, SVG Export Plug-In . SVG Version: 6.00 Build 0)  -->
<svg version="1.1" id="Layer_1" xmlns="http://www.w3.org/2000/svg" xmlns:xlink="http://www.w3.org/1999/xlink" x="0px" y="0px"
	 viewBox="0 0 1000 500" style="enable-background:new 0 0 1000 500;" xml:space="preserve">
<style type="text/css">
	.st0{opacity:0.45;}
	.st1{fill:#FFFFFF;}
</style>
<g>
	<g class="st0">
		
			<rect x="1" y="140.5" transform="matrix(0.7071 -0.7071 0.7071 0.7071 -416.2376 176.9929)" class="st1" width="9" height="900.9"/>
	</g>
	<g class="st0">
		
			<rect x="13.8" y="127.8" transform="matrix(0.7071 -0.7071 0.7071 0.7071 -403.5097 182.265)" class="st1" width="9" height="900.9"/>
	</g>
	<g class="st0">
		
			<rect x="26.5" y="115" transform="matrix(0.7071 -0.7071 0.7071 0.7071 -390.7818 187.537)" class="st1" width="9" height="900.9"/>
	</g>
	<g class="st0">
		
			<rect x="39.2" y="102.3" transform="matrix(0.7071 -0.7071 0.7071 0.7071 -378.0539 192.8092)" class="st1" width="9" height="900.9"/>
	</g>
	<g class="st0">
		
			<rect x="51.9" y="89.6" transform="matrix(0.7071 -0.7071 0.7071 0.7071 -365.326 198.0812)" class="st1" width="9" height="900.9"/>
	</g>
	<g class="st0">
		
			<rect x="64.7" y="76.8" transform="matrix(0.7071 -0.7071 0.7071 0.7071 -352.5981 203.3533)" class="st1" width="9" height="900.9"/>
	</g>
	<g class="st0">
		
			<rect x="77.4" y="64.1" transform="matrix(0.7071 -0.7071 0.7071 0.7071 -339.8702 208.6254)" class="st1" width="9" height="900.9"/>
	</g>
	<g class="st0">
		
			<rect x="90.1" y="51.4" transform="matrix(0.7071 -0.7071 0.7071 0.7071 -327.1423 213.8975)" class="st1" width="9" height="900.9"/>
	</g>
	<g class="st0">
		
			<rect x="102.9" y="38.7" transform="matrix(0.7071 -0.7071 0.7071 0.7071 -314.4144 219.1696)" class="st1" width="9" height="900.9"/>
	</g>
	<g class="st0">
		
			<rect x="115.6" y="25.9" transform="matrix(0.7071 -0.7071 0.7071 0.7071 -301.6864 224.4416)" class="st1" width="9" height="900.9"/>
	</g>
	<g class="st0">
		
			<rect x="128.3" y="13.2" transform="matrix(0.7071 -0.7071 0.7071 0.7071 -288.9585 229.7137)" class="st1" width="9" height="900.9"/>
	</g>
	<g class="st0">
		
			<rect x="141" y="0.5" transform="matrix(0.7071 -0.7071 0.7071 0.7071 -276.2306 234.9858)" class="st1" width="9" height="900.9"/>
	</g>
	<g class="st0">
		
			<rect x="153.8" y="-12.2" transform="matrix(0.7071 -0.7071 0.7071 0.7071 -263.5027 240.2579)" class="st1" width="9" height="900.9"/>
	</g>
	<g class="st0">
		
			<rect x="166.5" y="-25" transform="matrix(0.7071 -0.7071 0.7071 0.7071 -250.7748 245.53)" class="st1" width="9" height="900.9"/>
	</g>
	<g class="st0">
		
			<rect x="179.2" y="-37.7" transform="matrix(0.7071 -0.7071 0.7071 0.7071 -238.0469 250.802)" class="st1" width="9" height="900.9"/>
	</g>
	<g class="st0">
		
			<rect x="191.9" y="-50.4" transform="matrix(0.7071 -0.7071 0.7071 0.7071 -225.319 256.0741)" class="st1" width="9" height="900.9"/>
	</g>
	<g class="st0">
		
			<rect x="204.7" y="-63.2" transform="matrix(0.7071 -0.7071 0.7071 0.7071 -212.591 261.3463)" class="st1" width="9" height="900.9"/>
	</g>
	<g class="st0">
		
			<rect x="217.4" y="-75.9" transform="matrix(0.7071 -0.7071 0.7071 0.7071 -199.8631 266.6183)" class="st1" width="9" height="900.9"/>
	</g>
	<g class="st0">
		
			<rect x="230.1" y="-88.6" transform="matrix(0.7071 -0.7071 0.7071 0.7071 -187.1352 271.8904)" class="st1" width="9" height="900.9"/>
	</g>
	<g class="st0">
		
			<rect x="242.9" y="-101.3" transform="matrix(0.7071 -0.7071 0.7071 0.7071 -174.4073 277.1625)" class="st1" width="9" height="900.9"/>
	</g>
	<g class="st0">
		
			<rect x="255.6" y="-114.1" transform="matrix(0.7071 -0.7071 0.7071 0.7071 -161.6794 282.4345)" class="st1" width="9" height="900.9"/>
	</g>
	<g class="st0">
		
			<rect x="268.3" y="-126.8" transform="matrix(0.7071 -0.7071 0.7071 0.7071 -148.9515 287.7067)" class="st1" width="9" height="900.9"/>
	</g>
	<g class="st0">
		
			<rect x="281" y="-139.5" transform="matrix(0.7071 -0.7071 0.7071 0.7071 -136.2236 292.9787)" class="st1" width="9" height="900.9"/>
	</g>
	<g class="st0">
		
			<rect x="293.8" y="-152.3" transform="matrix(0.7071 -0.7071 0.7071 0.7071 -123.4957 298.2508)" class="st1" width="9" height="900.9"/>
	</g>
	<g class="st0">
		
			<rect x="306.5" y="-165" transform="matrix(0.7071 -0.7071 0.7071 0.7071 -110.7677 303.5229)" class="st1" width="9" height="900.9"/>
	</g>
	<g class="st0">
		
			<rect x="319.2" y="-177.7" transform="matrix(0.7071 -0.7071 0.7071 0.7071 -98.0398 308.795)" class="st1" width="9" height="900.9"/>
	</g>
	<g class="st0">
		
			<rect x="332" y="-190.4" transform="matrix(0.7071 -0.7071 0.7071 0.7071 -85.3119 314.0671)" class="st1" width="9" height="900.9"/>
	</g>
	<g class="st0">
		
			<rect x="344.7" y="-203.2" transform="matrix(0.7071 -0.7071 0.7071 0.7071 -72.584 319.3391)" class="st1" width="9" height="900.9"/>
	</g>
	<g class="st0">
		
			<rect x="357.4" y="-215.9" transform="matrix(0.7071 -0.7071 0.7071 0.7071 -59.8561 324.6112)" class="st1" width="9" height="900.9"/>
	</g>
	<g class="st0">
		
			<rect x="370.1" y="-228.6" transform="matrix(0.7071 -0.7071 0.7071 0.7071 -47.1282 329.8833)" class="st1" width="9" height="900.9"/>
	</g>
	<g class="st0">
		
			<rect x="382.9" y="-241.4" transform="matrix(0.7071 -0.7071 0.7071 0.7071 -34.4003 335.1554)" class="st1" width="9" height="900.9"/>
	</g>
	<g class="st0">
		
			<rect x="395.6" y="-254.1" transform="matrix(0.7071 -0.7071 0.7071 0.7071 -21.6723 340.4276)" class="st1" width="9" height="900.9"/>
	</g>
</g>
</svg>
