<?xml version="1.0" encoding="utf-8"?>
<!-- Generator: Adobe Illustrator 21.1.0, SVG Export Plug-In . SVG Version: 6.00 Build 0)  -->
<svg version="1.1" id="Layer_1" xmlns="http://www.w3.org/2000/svg" xmlns:xlink="http://www.w3.org/1999/xlink" x="0px" y="0px"
	 viewBox="0 0 1000 500" style="enable-background:new 0 0 1000 500;" xml:space="preserve">
<style type="text/css">
	.st0{opacity:0.4;}
	.st1{opacity:0.45;}
	.st2{fill:#AAA99F;}
</style>
<g class="st0">
	<g class="st1">
		
			<rect x="-217.5" y="238" transform="matrix(0.7071 -0.7071 0.7071 0.7071 -549.1994 51.0417)" class="st2" width="9" height="900.9"/>
	</g>
	<g class="st1">
		
			<rect x="-204.7" y="225.3" transform="matrix(0.7071 -0.7071 0.7071 0.7071 -536.4288 56.3547)" class="st2" width="9" height="900.9"/>
	</g>
	<g class="st1">
		
			<rect x="-192" y="212.5" transform="matrix(0.7071 -0.7071 0.7071 0.7071 -523.6997 61.5677)" class="st2" width="9" height="900.9"/>
	</g>
	<g class="st1">
		
			<rect x="-179.3" y="199.8" transform="matrix(0.7071 -0.7071 0.7071 0.7071 -510.9999 66.8513)" class="st2" width="9" height="900.9"/>
	</g>
	<g class="st1">
		
			<rect x="-166.6" y="187.1" transform="matrix(0.7071 -0.7071 0.7071 0.7071 -498.2999 72.135)" class="st2" width="9" height="900.9"/>
	</g>
	<g class="st1">
		
			<rect x="-153.8" y="174.3" transform="matrix(0.7071 -0.7071 0.7071 0.7071 -485.5001 77.3773)" class="st2" width="9" height="900.9"/>
	</g>
	<g class="st1">
		
			<rect x="-141.1" y="161.6" transform="matrix(0.7071 -0.7071 0.7071 0.7071 -472.8002 82.6609)" class="st2" width="9" height="900.9"/>
	</g>
	<g class="st1">
		
			<rect x="-128.4" y="148.9" transform="matrix(0.7071 -0.7071 0.7071 0.7071 -460.1003 87.9446)" class="st2" width="9" height="900.9"/>
	</g>
	<g class="st1">
		
			<rect x="-115.6" y="136.2" transform="matrix(0.7071 -0.7071 0.7071 0.7071 -447.3298 93.2576)" class="st2" width="9" height="900.9"/>
	</g>
	<g class="st1">
		
			<rect x="-102.9" y="123.4" transform="matrix(0.7071 -0.7071 0.7071 0.7071 -434.6006 98.4706)" class="st2" width="9" height="900.9"/>
	</g>
	<g class="st1">
		
			<rect x="-90.2" y="110.7" transform="matrix(0.7071 -0.7071 0.7071 0.7071 -421.9007 103.7543)" class="st2" width="9" height="900.9"/>
	</g>
	<g class="st1">
		
			<rect x="-77.5" y="98" transform="matrix(0.7071 -0.7071 0.7071 0.7071 -409.2008 109.038)" class="st2" width="9" height="900.9"/>
	</g>
	<g class="st1">
		
			<rect x="-64.7" y="85.3" transform="matrix(0.7071 -0.7071 0.7071 0.7071 -396.4302 114.351)" class="st2" width="9" height="900.9"/>
	</g>
	<g class="st1">
		
			<rect x="-52" y="72.5" transform="matrix(0.7071 -0.7071 0.7071 0.7071 -383.7011 119.5639)" class="st2" width="9" height="900.9"/>
	</g>
	<g class="st1">
		
			<rect x="-39.3" y="59.8" transform="matrix(0.7071 -0.7071 0.7071 0.7071 -371.0013 124.8476)" class="st2" width="9" height="900.9"/>
	</g>
	<g class="st1">
		
			<rect x="-26.6" y="47.1" transform="matrix(0.7071 -0.7071 0.7071 0.7071 -358.3013 130.1313)" class="st2" width="9" height="900.9"/>
	</g>
	<g class="st1">
		
			<rect x="-13.8" y="34.3" transform="matrix(0.7071 -0.7071 0.7071 0.7071 -345.5015 135.3736)" class="st2" width="9" height="900.9"/>
	</g>
	<g class="st1">
		
			<rect x="-1.1" y="21.6" transform="matrix(0.7071 -0.7071 0.7071 0.7071 -332.8016 140.6572)" class="st2" width="9" height="900.9"/>
	</g>
	<g class="st1">
		
			<rect x="11.6" y="8.9" transform="matrix(0.7071 -0.7071 0.7071 0.7071 -320.1017 145.941)" class="st2" width="9" height="900.9"/>
	</g>
	<g class="st1">
		
			<rect x="24.4" y="-3.8" transform="matrix(0.7071 -0.7071 0.7071 0.7071 -307.3312 151.254)" class="st2" width="9" height="900.9"/>
	</g>
	<g class="st1">
		
			<rect x="37.1" y="-16.6" transform="matrix(0.7071 -0.7071 0.7071 0.7071 -294.6021 156.4669)" class="st2" width="9" height="900.9"/>
	</g>
	<g class="st1">
		
			<rect x="49.8" y="-29.3" transform="matrix(0.7071 -0.7071 0.7071 0.7071 -281.9022 161.7506)" class="st2" width="9" height="900.9"/>
	</g>
	<g class="st1">
		
			<rect x="62.5" y="-42" transform="matrix(0.7071 -0.7071 0.7071 0.7071 -269.2022 167.0343)" class="st2" width="9" height="900.9"/>
	</g>
	<g class="st1">
		
			<rect x="75.3" y="-54.8" transform="matrix(0.7071 -0.7071 0.7071 0.7071 -256.4024 172.2766)" class="st2" width="9" height="900.9"/>
	</g>
	<g class="st1">
		
			<rect x="88" y="-67.5" transform="matrix(0.7071 -0.7071 0.7071 0.7071 -243.7025 177.5603)" class="st2" width="9" height="900.9"/>
	</g>
	<g class="st1">
		
			<rect x="100.7" y="-80.2" transform="matrix(0.7071 -0.7071 0.7071 0.7071 -231.0027 182.844)" class="st2" width="9" height="900.9"/>
	</g>
	<g class="st1">
		
			<rect x="113.5" y="-92.9" transform="matrix(0.7071 -0.7071 0.7071 0.7071 -218.2321 188.157)" class="st2" width="9" height="900.9"/>
	</g>
	<g class="st1">
		
			<rect x="126.2" y="-105.7" transform="matrix(0.7071 -0.7071 0.7071 0.7071 -205.5029 193.3699)" class="st2" width="9" height="900.9"/>
	</g>
	<g class="st1">
		
			<rect x="138.9" y="-118.4" transform="matrix(0.7071 -0.7071 0.7071 0.7071 -192.803 198.6536)" class="st2" width="9" height="900.9"/>
	</g>
	<g class="st1">
		
			<rect x="151.6" y="-131.1" transform="matrix(0.7071 -0.7071 0.7071 0.7071 -180.1032 203.9373)" class="st2" width="9" height="900.9"/>
	</g>
	<g class="st1">
		
			<rect x="164.4" y="-143.9" transform="matrix(0.7071 -0.7071 0.7071 0.7071 -167.3033 209.1795)" class="st2" width="9" height="900.9"/>
	</g>
	<g class="st1">
		
			<rect x="177.1" y="-156.6" transform="matrix(0.7071 -0.7071 0.7071 0.7071 -154.6035 214.4633)" class="st2" width="9" height="900.9"/>
	</g>
</g>
</svg>
