<?xml version="1.0" encoding="utf-8"?>
<!-- Generator: Adobe Illustrator 21.1.0, SVG Export Plug-In . SVG Version: 6.00 Build 0)  -->
<svg version="1.1" id="Layer_1" xmlns="http://www.w3.org/2000/svg" xmlns:xlink="http://www.w3.org/1999/xlink" x="0px" y="0px"
	 viewBox="0 0 1000 500" style="enable-background:new 0 0 1000 500;" xml:space="preserve">
<style type="text/css">
	.st0{opacity:0.4;}
	.st1{opacity:0.45;}
	.st2{fill:#AAA99F;}
</style>
<g class="st0">
	<g class="st1">
		
			<rect x="636" y="-155.5" transform="matrix(0.7071 -0.7071 0.7071 0.7071 -20.974 539.3039)" class="st2" width="9" height="900.9"/>
	</g>
	<g class="st1">
		
			<rect x="648.8" y="-168.2" transform="matrix(0.7071 -0.7071 0.7071 0.7071 -8.2034 544.6169)" class="st2" width="9" height="900.9"/>
	</g>
	<g class="st1">
		
			<rect x="661.5" y="-181" transform="matrix(0.7071 -0.7071 0.7071 0.7071 4.5257 549.8298)" class="st2" width="9" height="900.9"/>
	</g>
	<g class="st1">
		
			<rect x="674.2" y="-193.7" transform="matrix(0.7071 -0.7071 0.7071 0.7071 17.2256 555.1136)" class="st2" width="9" height="900.9"/>
	</g>
	<g class="st1">
		
			<rect x="686.9" y="-206.4" transform="matrix(0.7071 -0.7071 0.7071 0.7071 29.9255 560.3973)" class="st2" width="9" height="900.9"/>
	</g>
	<g class="st1">
		
			<rect x="699.7" y="-219.2" transform="matrix(0.7071 -0.7071 0.7071 0.7071 42.7254 565.6395)" class="st2" width="9" height="900.9"/>
	</g>
	<g class="st1">
		
			<rect x="712.4" y="-231.9" transform="matrix(0.7071 -0.7071 0.7071 0.7071 55.4252 570.9232)" class="st2" width="9" height="900.9"/>
	</g>
	<g class="st1">
		
			<rect x="725.1" y="-244.6" transform="matrix(0.7071 -0.7071 0.7071 0.7071 68.1251 576.2069)" class="st2" width="9" height="900.9"/>
	</g>
	<g class="st1">
		
			<rect x="737.9" y="-257.3" transform="matrix(0.7071 -0.7071 0.7071 0.7071 80.8957 581.5199)" class="st2" width="9" height="900.9"/>
	</g>
	<g class="st1">
		
			<rect x="750.6" y="-270.1" transform="matrix(0.7071 -0.7071 0.7071 0.7071 93.6248 586.7328)" class="st2" width="9" height="900.9"/>
	</g>
	<g class="st1">
		
			<rect x="763.3" y="-282.8" transform="matrix(0.7071 -0.7071 0.7071 0.7071 106.3247 592.0165)" class="st2" width="9" height="900.9"/>
	</g>
	<g class="st1">
		
			<rect x="776" y="-295.5" transform="matrix(0.7071 -0.7071 0.7071 0.7071 119.0246 597.3002)" class="st2" width="9" height="900.9"/>
	</g>
	<g class="st1">
		
			<rect x="788.8" y="-308.2" transform="matrix(0.7071 -0.7071 0.7071 0.7071 131.7952 602.6132)" class="st2" width="9" height="900.9"/>
	</g>
	<g class="st1">
		
			<rect x="801.5" y="-321" transform="matrix(0.7071 -0.7071 0.7071 0.7071 144.5243 607.8262)" class="st2" width="9" height="900.9"/>
	</g>
	<g class="st1">
		
			<rect x="814.2" y="-333.7" transform="matrix(0.7071 -0.7071 0.7071 0.7071 157.2242 613.1099)" class="st2" width="9" height="900.9"/>
	</g>
	<g class="st1">
		
			<rect x="826.9" y="-346.4" transform="matrix(0.7071 -0.7071 0.7071 0.7071 169.9241 618.3936)" class="st2" width="9" height="900.9"/>
	</g>
	<g class="st1">
		
			<rect x="839.7" y="-359.2" transform="matrix(0.7071 -0.7071 0.7071 0.7071 182.7239 623.6359)" class="st2" width="9" height="900.9"/>
	</g>
	<g class="st1">
		
			<rect x="852.4" y="-371.9" transform="matrix(0.7071 -0.7071 0.7071 0.7071 195.4238 628.9196)" class="st2" width="9" height="900.9"/>
	</g>
	<g class="st1">
		
			<rect x="865.1" y="-384.6" transform="matrix(0.7071 -0.7071 0.7071 0.7071 208.1236 634.2032)" class="st2" width="9" height="900.9"/>
	</g>
	<g class="st1">
		
			<rect x="877.9" y="-397.3" transform="matrix(0.7071 -0.7071 0.7071 0.7071 220.8943 639.5162)" class="st2" width="9" height="900.9"/>
	</g>
	<g class="st1">
		
			<rect x="890.6" y="-410.1" transform="matrix(0.7071 -0.7071 0.7071 0.7071 233.6234 644.7292)" class="st2" width="9" height="900.9"/>
	</g>
	<g class="st1">
		
			<rect x="903.3" y="-422.8" transform="matrix(0.7071 -0.7071 0.7071 0.7071 246.3233 650.0129)" class="st2" width="9" height="900.9"/>
	</g>
	<g class="st1">
		
			<rect x="916" y="-435.5" transform="matrix(0.7071 -0.7071 0.7071 0.7071 259.0232 655.2966)" class="st2" width="9" height="900.9"/>
	</g>
	<g class="st1">
		
			<rect x="928.8" y="-448.3" transform="matrix(0.7071 -0.7071 0.7071 0.7071 271.823 660.5388)" class="st2" width="9" height="900.9"/>
	</g>
	<g class="st1">
		
			<rect x="941.5" y="-461" transform="matrix(0.7071 -0.7071 0.7071 0.7071 284.5229 665.8225)" class="st2" width="9" height="900.9"/>
	</g>
	<g class="st1">
		
			<rect x="954.2" y="-473.7" transform="matrix(0.7071 -0.7071 0.7071 0.7071 297.2228 671.1063)" class="st2" width="9" height="900.9"/>
	</g>
	<g class="st1">
		
			<rect x="967" y="-486.4" transform="matrix(0.7071 -0.7071 0.7071 0.7071 309.9933 676.4192)" class="st2" width="9" height="900.9"/>
	</g>
	<g class="st1">
		
			<rect x="979.7" y="-499.2" transform="matrix(0.7071 -0.7071 0.7071 0.7071 322.7225 681.6321)" class="st2" width="9" height="900.9"/>
	</g>
	<g class="st1">
		
			<rect x="992.4" y="-511.9" transform="matrix(0.7071 -0.7071 0.7071 0.7071 335.4224 686.9158)" class="st2" width="9" height="900.9"/>
	</g>
	<g class="st1">
		
			<rect x="1005.1" y="-524.6" transform="matrix(0.7071 -0.7071 0.7071 0.7071 348.1222 692.1996)" class="st2" width="9" height="900.9"/>
	</g>
	<g class="st1">
		
			<rect x="1017.8" y="-537.4" transform="matrix(0.7071 -0.7071 0.7071 0.7071 360.9221 697.4418)" class="st2" width="9" height="900.9"/>
	</g>
	<g class="st1">
		
			<rect x="1030.6" y="-550.1" transform="matrix(0.7071 -0.7071 0.7071 0.7071 373.6219 702.7258)" class="st2" width="9" height="900.9"/>
	</g>
</g>
</svg>
