<?xml version="1.0" encoding="utf-8"?>
<!-- Generator: Adobe Illustrator 21.1.0, SVG Export Plug-In . SVG Version: 6.00 Build 0)  -->
<svg version="1.1" id="Layer_1" xmlns="http://www.w3.org/2000/svg" xmlns:xlink="http://www.w3.org/1999/xlink" x="0px" y="0px"
	 viewBox="0 0 1000 500" style="enable-background:new 0 0 1000 500;" xml:space="preserve">
<style type="text/css">
	.st0{opacity:0.4;}
	.st1{opacity:0.45;}
	.st2{fill:#AAA99F;}
</style>
<g class="st0">
	<g class="st1">
		
			<rect x="-165" y="185.5" transform="matrix(0.7071 -0.7071 0.7071 0.7071 -496.6776 72.7934)" class="st2" width="9" height="900.9"/>
	</g>
	<g class="st1">
		
			<rect x="-152.2" y="172.8" transform="matrix(0.7071 -0.7071 0.7071 0.7071 -483.9497 78.0655)" class="st2" width="9" height="900.9"/>
	</g>
	<g class="st1">
		
			<rect x="-139.5" y="160" transform="matrix(0.7071 -0.7071 0.7071 0.7071 -471.2218 83.3376)" class="st2" width="9" height="900.9"/>
	</g>
	<g class="st1">
		
			<rect x="-126.8" y="147.3" transform="matrix(0.7071 -0.7071 0.7071 0.7071 -458.494 88.6097)" class="st2" width="9" height="900.9"/>
	</g>
	<g class="st1">
		
			<rect x="-114.1" y="134.6" transform="matrix(0.7071 -0.7071 0.7071 0.7071 -445.766 93.8817)" class="st2" width="9" height="900.9"/>
	</g>
	<g class="st1">
		
			<rect x="-101.3" y="121.8" transform="matrix(0.7071 -0.7071 0.7071 0.7071 -433.0381 99.1538)" class="st2" width="9" height="900.9"/>
	</g>
	<g class="st1">
		
			<rect x="-88.6" y="109.1" transform="matrix(0.7071 -0.7071 0.7071 0.7071 -420.3102 104.4259)" class="st2" width="9" height="900.9"/>
	</g>
	<g class="st1">
		
			<rect x="-75.9" y="96.4" transform="matrix(0.7071 -0.7071 0.7071 0.7071 -407.5823 109.698)" class="st2" width="9" height="900.9"/>
	</g>
	<g class="st1">
		
			<rect x="-63.1" y="83.7" transform="matrix(0.7071 -0.7071 0.7071 0.7071 -394.8544 114.9701)" class="st2" width="9" height="900.9"/>
	</g>
	<g class="st1">
		
			<rect x="-50.4" y="70.9" transform="matrix(0.7071 -0.7071 0.7071 0.7071 -382.1264 120.2421)" class="st2" width="9" height="900.9"/>
	</g>
	<g class="st1">
		
			<rect x="-37.7" y="58.2" transform="matrix(0.7071 -0.7071 0.7071 0.7071 -369.3985 125.5142)" class="st2" width="9" height="900.9"/>
	</g>
	<g class="st1">
		
			<rect x="-25" y="45.5" transform="matrix(0.7071 -0.7071 0.7071 0.7071 -356.6706 130.7863)" class="st2" width="9" height="900.9"/>
	</g>
	<g class="st1">
		
			<rect x="-12.2" y="32.8" transform="matrix(0.7071 -0.7071 0.7071 0.7071 -343.9427 136.0584)" class="st2" width="9" height="900.9"/>
	</g>
	<g class="st1">
		
			<rect x="0.5" y="20" transform="matrix(0.7071 -0.7071 0.7071 0.7071 -331.2148 141.3305)" class="st2" width="9" height="900.9"/>
	</g>
	<g class="st1">
		
			<rect x="13.2" y="7.3" transform="matrix(0.7071 -0.7071 0.7071 0.7071 -318.4869 146.6026)" class="st2" width="9" height="900.9"/>
	</g>
	<g class="st1">
		
			<rect x="25.9" y="-5.4" transform="matrix(0.7071 -0.7071 0.7071 0.7071 -305.759 151.8746)" class="st2" width="9" height="900.9"/>
	</g>
	<g class="st1">
		
			<rect x="38.7" y="-18.2" transform="matrix(0.7071 -0.7071 0.7071 0.7071 -293.0311 157.1467)" class="st2" width="9" height="900.9"/>
	</g>
	<g class="st1">
		
			<rect x="51.4" y="-30.9" transform="matrix(0.7071 -0.7071 0.7071 0.7071 -280.3032 162.4188)" class="st2" width="9" height="900.9"/>
	</g>
	<g class="st1">
		
			<rect x="64.1" y="-43.6" transform="matrix(0.7071 -0.7071 0.7071 0.7071 -267.5752 167.6909)" class="st2" width="9" height="900.9"/>
	</g>
	<g class="st1">
		
			<rect x="76.9" y="-56.3" transform="matrix(0.7071 -0.7071 0.7071 0.7071 -254.8473 172.963)" class="st2" width="9" height="900.9"/>
	</g>
	<g class="st1">
		
			<rect x="89.6" y="-69.1" transform="matrix(0.7071 -0.7071 0.7071 0.7071 -242.1194 178.2351)" class="st2" width="9" height="900.9"/>
	</g>
	<g class="st1">
		
			<rect x="102.3" y="-81.8" transform="matrix(0.7071 -0.7071 0.7071 0.7071 -229.3915 183.5072)" class="st2" width="9" height="900.9"/>
	</g>
	<g class="st1">
		
			<rect x="115" y="-94.5" transform="matrix(0.7071 -0.7071 0.7071 0.7071 -216.6636 188.7792)" class="st2" width="9" height="900.9"/>
	</g>
	<g class="st1">
		
			<rect x="127.8" y="-107.3" transform="matrix(0.7071 -0.7071 0.7071 0.7071 -203.9357 194.0513)" class="st2" width="9" height="900.9"/>
	</g>
	<g class="st1">
		
			<rect x="140.5" y="-120" transform="matrix(0.7071 -0.7071 0.7071 0.7071 -191.2077 199.3234)" class="st2" width="9" height="900.9"/>
	</g>
	<g class="st1">
		
			<rect x="153.2" y="-132.7" transform="matrix(0.7071 -0.7071 0.7071 0.7071 -178.4798 204.5955)" class="st2" width="9" height="900.9"/>
	</g>
	<g class="st1">
		
			<rect x="166" y="-145.4" transform="matrix(0.7071 -0.7071 0.7071 0.7071 -165.7519 209.8676)" class="st2" width="9" height="900.9"/>
	</g>
	<g class="st1">
		
			<rect x="178.7" y="-158.2" transform="matrix(0.7071 -0.7071 0.7071 0.7071 -153.024 215.1396)" class="st2" width="9" height="900.9"/>
	</g>
	<g class="st1">
		
			<rect x="191.4" y="-170.9" transform="matrix(0.7071 -0.7071 0.7071 0.7071 -140.2961 220.4117)" class="st2" width="9" height="900.9"/>
	</g>
	<g class="st1">
		
			<rect x="204.1" y="-183.6" transform="matrix(0.7071 -0.7071 0.7071 0.7071 -127.5682 225.6838)" class="st2" width="9" height="900.9"/>
	</g>
	<g class="st1">
		
			<rect x="216.9" y="-196.4" transform="matrix(0.7071 -0.7071 0.7071 0.7071 -114.8403 230.9559)" class="st2" width="9" height="900.9"/>
	</g>
	<g class="st1">
		
			<rect x="229.6" y="-209.1" transform="matrix(0.7071 -0.7071 0.7071 0.7071 -102.1124 236.2281)" class="st2" width="9" height="900.9"/>
	</g>
</g>
</svg>
