<?xml version="1.0" encoding="utf-8"?>
<!-- Generator: Adobe Illustrator 21.1.0, SVG Export Plug-In . SVG Version: 6.00 Build 0)  -->
<svg version="1.1" id="Layer_1" xmlns="http://www.w3.org/2000/svg" xmlns:xlink="http://www.w3.org/1999/xlink" x="0px" y="0px"
	 viewBox="0 0 1000 500" style="enable-background:new 0 0 1000 500;" xml:space="preserve">
<style type="text/css">
	.st0{opacity:0.4;}
	.st1{opacity:0.45;}
	.st2{fill:#AAA99F;}
</style>
<g class="st0">
	<g class="st1">
		
			<rect x="500" y="-140.5" transform="matrix(0.7071 -0.7071 0.7071 0.7071 -71.3872 447.5361)" class="st2" width="9" height="900.9"/>
	</g>
	<g class="st1">
		
			<rect x="512.8" y="-153.2" transform="matrix(0.7071 -0.7071 0.7071 0.7071 -58.6593 452.8082)" class="st2" width="9" height="900.9"/>
	</g>
	<g class="st1">
		
			<rect x="525.5" y="-166" transform="matrix(0.7071 -0.7071 0.7071 0.7071 -45.9314 458.0803)" class="st2" width="9" height="900.9"/>
	</g>
	<g class="st1">
		
			<rect x="538.2" y="-178.7" transform="matrix(0.7071 -0.7071 0.7071 0.7071 -33.2034 463.3524)" class="st2" width="9" height="900.9"/>
	</g>
	<g class="st1">
		
			<rect x="550.9" y="-191.4" transform="matrix(0.7071 -0.7071 0.7071 0.7071 -20.4755 468.6245)" class="st2" width="9" height="900.9"/>
	</g>
	<g class="st1">
		
			<rect x="563.7" y="-204.2" transform="matrix(0.7071 -0.7071 0.7071 0.7071 -7.7476 473.8965)" class="st2" width="9" height="900.9"/>
	</g>
	<g class="st1">
		
			<rect x="576.4" y="-216.9" transform="matrix(0.7071 -0.7071 0.7071 0.7071 4.9803 479.1686)" class="st2" width="9" height="900.9"/>
	</g>
	<g class="st1">
		
			<rect x="589.1" y="-229.6" transform="matrix(0.7071 -0.7071 0.7071 0.7071 17.7082 484.4407)" class="st2" width="9" height="900.9"/>
	</g>
	<g class="st1">
		
			<rect x="601.9" y="-242.3" transform="matrix(0.7071 -0.7071 0.7071 0.7071 30.4361 489.7128)" class="st2" width="9" height="900.9"/>
	</g>
	<g class="st1">
		
			<rect x="614.6" y="-255.1" transform="matrix(0.7071 -0.7071 0.7071 0.7071 43.164 494.9848)" class="st2" width="9" height="900.9"/>
	</g>
	<g class="st1">
		
			<rect x="627.3" y="-267.8" transform="matrix(0.7071 -0.7071 0.7071 0.7071 55.8919 500.2569)" class="st2" width="9" height="900.9"/>
	</g>
	<g class="st1">
		
			<rect x="640" y="-280.5" transform="matrix(0.7071 -0.7071 0.7071 0.7071 68.6199 505.529)" class="st2" width="9" height="900.9"/>
	</g>
	<g class="st1">
		
			<rect x="652.8" y="-293.2" transform="matrix(0.7071 -0.7071 0.7071 0.7071 81.3478 510.8011)" class="st2" width="9" height="900.9"/>
	</g>
	<g class="st1">
		
			<rect x="665.5" y="-306" transform="matrix(0.7071 -0.7071 0.7071 0.7071 94.0757 516.0732)" class="st2" width="9" height="900.9"/>
	</g>
	<g class="st1">
		
			<rect x="678.2" y="-318.7" transform="matrix(0.7071 -0.7071 0.7071 0.7071 106.8036 521.3453)" class="st2" width="9" height="900.9"/>
	</g>
	<g class="st1">
		
			<rect x="690.9" y="-331.4" transform="matrix(0.7071 -0.7071 0.7071 0.7071 119.5315 526.6174)" class="st2" width="9" height="900.9"/>
	</g>
	<g class="st1">
		
			<rect x="703.7" y="-344.2" transform="matrix(0.7071 -0.7071 0.7071 0.7071 132.2594 531.8895)" class="st2" width="9" height="900.9"/>
	</g>
	<g class="st1">
		
			<rect x="716.4" y="-356.9" transform="matrix(0.7071 -0.7071 0.7071 0.7071 144.9874 537.1616)" class="st2" width="9" height="900.9"/>
	</g>
	<g class="st1">
		
			<rect x="729.1" y="-369.6" transform="matrix(0.7071 -0.7071 0.7071 0.7071 157.7152 542.4336)" class="st2" width="9" height="900.9"/>
	</g>
	<g class="st1">
		
			<rect x="741.9" y="-382.3" transform="matrix(0.7071 -0.7071 0.7071 0.7071 170.4431 547.7057)" class="st2" width="9" height="900.9"/>
	</g>
	<g class="st1">
		
			<rect x="754.6" y="-395.1" transform="matrix(0.7071 -0.7071 0.7071 0.7071 183.1711 552.9778)" class="st2" width="9" height="900.9"/>
	</g>
	<g class="st1">
		
			<rect x="767.3" y="-407.8" transform="matrix(0.7071 -0.7071 0.7071 0.7071 195.899 558.2499)" class="st2" width="9" height="900.9"/>
	</g>
	<g class="st1">
		
			<rect x="780" y="-420.5" transform="matrix(0.7071 -0.7071 0.7071 0.7071 208.6269 563.5219)" class="st2" width="9" height="900.9"/>
	</g>
	<g class="st1">
		
			<rect x="792.8" y="-433.3" transform="matrix(0.7071 -0.7071 0.7071 0.7071 221.3548 568.794)" class="st2" width="9" height="900.9"/>
	</g>
	<g class="st1">
		
			<rect x="805.5" y="-446" transform="matrix(0.7071 -0.7071 0.7071 0.7071 234.0827 574.0661)" class="st2" width="9" height="900.9"/>
	</g>
	<g class="st1">
		
			<rect x="818.2" y="-458.7" transform="matrix(0.7071 -0.7071 0.7071 0.7071 246.8107 579.3382)" class="st2" width="9" height="900.9"/>
	</g>
	<g class="st1">
		
			<rect x="831" y="-471.4" transform="matrix(0.7071 -0.7071 0.7071 0.7071 259.5386 584.6103)" class="st2" width="9" height="900.9"/>
	</g>
	<g class="st1">
		
			<rect x="843.7" y="-484.2" transform="matrix(0.7071 -0.7071 0.7071 0.7071 272.2664 589.8823)" class="st2" width="9" height="900.9"/>
	</g>
	<g class="st1">
		
			<rect x="856.4" y="-496.9" transform="matrix(0.7071 -0.7071 0.7071 0.7071 284.9944 595.1544)" class="st2" width="9" height="900.9"/>
	</g>
	<g class="st1">
		
			<rect x="869.1" y="-509.6" transform="matrix(0.7071 -0.7071 0.7071 0.7071 297.7224 600.4266)" class="st2" width="9" height="900.9"/>
	</g>
	<g class="st1">
		
			<rect x="881.9" y="-522.4" transform="matrix(0.7071 -0.7071 0.7071 0.7071 310.4502 605.6986)" class="st2" width="9" height="900.9"/>
	</g>
	<g class="st1">
		
			<rect x="894.6" y="-535.1" transform="matrix(0.7071 -0.7071 0.7071 0.7071 323.1784 610.9709)" class="st2" width="9" height="900.9"/>
	</g>
</g>
</svg>
